{
  "accessors": [
    {
      "bufferView": 2,
      "componentType": 5126,
      "count": 46027,
      "max": [
        4.0848598480224609,
        4.0839800834655762,
        0.22292999923229218
      ],
      "min": [
        -4.083010196685791,
        -4.0838899612426758,
        -1.7217400074005127
      ],
      "type": "VEC3"
    },
    {
      "bufferView": 2,
      "byteOffset": 552324,
      "componentType": 5126,
      "count": 46027,
      "max": [
        0.99999994039535522,
        1,
        0.99999958276748657
      ],
      "min": [
        -0.99999910593032837,
        -1,
        -0.99999922513961792
      ],
      "type": "VEC3"
    },
    {
      "bufferView": 3,
      "componentType": 5126,
      "count": 46027,
      "max": [
        0.99999719858169556,
        1,
        0.99954736232757568,
        1
      ],
      "min": [
        -0.99999922513961792,
        -1,
        -0.99881637096405029,
        -1
      ],
      "type": "VEC4"
    },
    {
      "bufferView": 1,
      "componentType": 5126,
      "count": 46027,
      "max": [
        8.779780387878418,
        7.7756500244140625
      ],
      "min": [
        -8.02532958984375,
        -6.0038199424743652
      ],
      "type": "VEC2"
    },
    {
      "bufferView": 0,
      "componentType": 5125,
      "count": 262656,
      "max": [
        46026
      ],
      "min": [
        0
      ],
      "type": "SCALAR"
    },
    {
      "bufferView": 2,
      "byteOffset": 1104648,
      "componentType": 5126,
      "count": 46027,
      "max": [
        4.0848598480224609,
        4.0839800834655762,
        0.10434000194072723
      ],
      "min": [
        -4.083010196685791,
        -4.0838899612426758,
        -1.7217600345611572
      ],
      "type": "VEC3"
    },
    {
      "bufferView": 2,
      "byteOffset": 1656972,
      "componentType": 5126,
      "count": 46027,
      "max": [
        0.99999946355819702,
        1,
        0.99999123811721802
      ],
      "min": [
        -0.99999958276748657,
        -1,
        -0.99999397993087769
      ],
      "type": "VEC3"
    },
    {
      "bufferView": 3,
      "byteOffset": 736432,
      "componentType": 5126,
      "count": 46027,
      "max": [
        0.99999392032623291,
        1,
        0.99955368041992188,
        1
      ],
      "min": [
        -1,
        -1,
        -0.99877744913101196,
        -1
      ],
      "type": "VEC4"
    },
    {
      "bufferView": 1,
      "byteOffset": 368216,
      "componentType": 5126,
      "count": 46027,
      "max": [
        8.779780387878418,
        7.7756500244140625
      ],
      "min": [
        -8.02532958984375,
        -6.0038199424743652
      ],
      "type": "VEC2"
    },
    {
      "bufferView": 0,
      "byteOffset": 1050624,
      "componentType": 5125,
      "count": 262656,
      "max": [
        46026
      ],
      "min": [
        0
      ],
      "type": "SCALAR"
    },
    {
      "bufferView": 2,
      "byteOffset": 2209296,
      "componentType": 5126,
      "count": 65532,
      "max": [
        12.542010307312012,
        6.2887001037597656,
        0.68335998058319092
      ],
      "min": [
        -1.006100058555603,
        -0.12133000046014786,
        -9.5811996459960938
      ],
      "type": "VEC3"
    },
    {
      "bufferView": 2,
      "byteOffset": 2995680,
      "componentType": 5126,
      "count": 65532,
      "max": [
        0.9999510645866394,
        1,
        0.99999994039535522
      ],
      "min": [
        -0.99976712465286255,
        -1,
        -0.99999803304672241
      ],
      "type": "VEC3"
    },
    {
      "bufferView": 3,
      "byteOffset": 1472864,
      "componentType": 5126,
      "count": 65532,
      "max": [
        0.99905127286911011,
        1,
        0.99987691640853882,
        1
      ],
      "min": [
        -0.99956011772155762,
        -1,
        -1,
        -1
      ],
      "type": "VEC4"
    },
    {
      "bufferView": 0,
      "byteOffset": 2101248,
      "componentType": 5125,
      "count": 374034,
      "max": [
        65531
      ],
      "min": [
        0
      ],
      "type": "SCALAR"
    },
    {
      "bufferView": 2,
      "byteOffset": 3782064,
      "componentType": 5126,
      "count": 36442,
      "max": [
        12.542010307312012,
        6.3198199272155762,
        0.68301999568939209
      ],
      "min": [
        -1.0131499767303467,
        -0.12133000046014786,
        -9.5903902053833008
      ],
      "type": "VEC3"
    },
    {
      "bufferView": 2,
      "byteOffset": 4219368,
      "componentType": 5126,
      "count": 36442,
      "max": [
        0.99969881772994995,
        1,
        0.99999994039535522
      ],
      "min": [
        -0.99999994039535522,
        -1,
        -0.99999803304672241
      ],
      "type": "VEC3"
    },
    {
      "bufferView": 3,
      "byteOffset": 2521376,
      "componentType": 5126,
      "count": 36442,
      "max": [
        0.99905067682266235,
        1,
        0.99986326694488525,
        1
      ],
      "min": [
        -0.99887186288833618,
        -1,
        -1,
        -1
      ],
      "type": "VEC4"
    },
    {
      "bufferView": 0,
      "byteOffset": 3597384,
      "componentType": 5125,
      "count": 206574,
      "max": [
        36441
      ],
      "min": [
        0
      ],
      "type": "SCALAR"
    },
    {
      "bufferView": 2,
      "byteOffset": 4656672,
      "componentType": 5126,
      "count": 25696,
      "max": [
        12.572750091552734,
        6.0041699409484863,
        0.70842999219894409
      ],
      "min": [
        -0.28047999739646912,
        0.17369000613689423,
        -7.3820500373840332
      ],
      "type": "VEC3"
    },
    {
      "bufferView": 2,
      "byteOffset": 4965024,
      "componentType": 5126,
      "count": 25696,
      "max": [
        0.99986773729324341,
        0.99999338388442993,
        1
      ],
      "min": [
        -0.99957799911499023,
        -0.99998193979263306,
        -1
      ],
      "type": "VEC3"
    },
    {
      "bufferView": 3,
      "byteOffset": 3104448,
      "componentType": 5126,
      "count": 25696,
      "max": [
        0.9999353289604187,
        1,
        0.99632829427719116,
        1
      ],
      "min": [
        -0.99954664707183838,
        -1,
        -0.99986773729324341,
        -1
      ],
      "type": "VEC4"
    },
    {
      "bufferView": 1,
      "byteOffset": 736432,
      "componentType": 5126,
      "count": 25696,
      "max": [
        20.812719345092773,
        11.393409729003906
      ],
      "min": [
        -25.847410202026367,
        -0.90315002202987671
      ],
      "type": "VEC2"
    },
    {
      "bufferView": 0,
      "byteOffset": 4423680,
      "componentType": 5125,
      "count": 133632,
      "max": [
        25695
      ],
      "min": [
        0
      ],
      "type": "SCALAR"
    }
  ],
  "asset": {
    "generator": "Sketchfab (OSG glTF plugin)",
    "version": "2.0"
  },
  "bufferViews": [
    {
      "buffer": 0,
      "byteLength": 4958208,
      "byteOffset": 0,
      "name": "floatBufferViews",
      "target": 34963
    },
    {
      "buffer": 0,
      "byteLength": 942000,
      "byteOffset": 4958208,
      "byteStride": 8,
      "name": "floatBufferViews",
      "target": 34962
    },
    {
      "buffer": 0,
      "byteLength": 5273376,
      "byteOffset": 5900208,
      "byteStride": 12,
      "name": "floatBufferViews",
      "target": 34962
    },
    {
      "buffer": 0,
      "byteLength": 3515584,
      "byteOffset": 11173584,
      "byteStride": 16,
      "name": "floatBufferViews",
      "target": 34962
    }
  ],
  "buffers": [
    {
      "byteLength": 14689168,
      "uri": "scene.bin"
    }
  ],
  "images": [
    {
      "uri": "textures/laniere_baseColor.jpeg"
    },
    {
      "uri": "textures/laniere_metallicRoughness.png"
    },
    {
      "uri": "textures/cuir_baseColor.png"
    },
    {
      "uri": "textures/cuir_normal.png"
    },
    {
      "uri": "textures/cuir_metallicRoughness.png"
    }
  ],
  "materials": [
    {
      "doubleSided": false,
      "name": "laniere",
      "pbrMetallicRoughness": {
        "baseColorFactor": [
          1,
          1,
          1,
          1
        ],
        "baseColorTexture": {
          "index": 0,
          "texCoord": 0
        },
        "metallicFactor": 0.78000000000000003,
        "metallicRoughnessTexture": {
          "index": 1,
          "texCoord": 0
        },
        "roughnessFactor": 1
      }
    },
    {
      "doubleSided": false,
      "name": "METAL",
      "pbrMetallicRoughness": {
        "baseColorFactor": [
          1,
          1,
          1,
          1
        ],
        "metallicFactor": 1,
        "roughnessFactor": 0.68102729849999999
      }
    },
    {
      "doubleSided": false,
      "name": "cuir",
      "normalTexture": {
        "index": 3,
        "scale": 1,
        "texCoord": 0
      },
      "pbrMetallicRoughness": {
        "baseColorFactor": [
          1,
          1,
          1,
          1
        ],
        "baseColorTexture": {
          "index": 2,
          "texCoord": 0
        },
        "metallicFactor": 0.20000000000000001,
        "metallicRoughnessTexture": {
          "index": 4,
          "texCoord": 0
        },
        "roughnessFactor": 1
      }
    }
  ],
  "meshes": [
    {
      "name": "coussin",
      "primitives": [
        {
          "attributes": {
            "NORMAL": 1,
            "POSITION": 0,
            "TANGENT": 2,
            "TEXCOORD_0": 3
          },
          "indices": 4,
          "material": 2,
          "mode": 4
        }
      ]
    },
    {
      "name": "coussin.001",
      "primitives": [
        {
          "attributes": {
            "NORMAL": 6,
            "POSITION": 5,
            "TANGENT": 7,
            "TEXCOORD_0": 8
          },
          "indices": 9,
          "material": 2,
          "mode": 4
        }
      ]
    },
    {
      "name": "strcuture",
      "primitives": [
        {
          "attributes": {
            "NORMAL": 11,
            "POSITION": 10,
            "TANGENT": 12
          },
          "indices": 13,
          "material": 1,
          "mode": 4
        }
      ]
    },
    {
      "name": "strcuture",
      "primitives": [
        {
          "attributes": {
            "NORMAL": 15,
            "POSITION": 14,
            "TANGENT": 16
          },
          "indices": 17,
          "material": 1,
          "mode": 4
        }
      ]
    },
    {
      "name": "laniere",
      "primitives": [
        {
          "attributes": {
            "NORMAL": 19,
            "POSITION": 18,
            "TANGENT": 20,
            "TEXCOORD_0": 21
          },
          "indices": 22,
          "material": 0,
          "mode": 4
        }
      ]
    }
  ],
  "nodes": [
    {
      "children": [
        1
      ],
      "name": "RootNode (gltf orientation matrix)",
      "rotation": [
        -0.70710678118654746,
        -0,
        -0,
        0.70710678118654757
      ]
    },
    {
      "children": [
        2
      ],
      "name": "RootNode (model correction matrix)"
    },
    {
      "children": [
        3,
        6,
        9,
        13
      ],
      "name": "Root"
    },
    {
      "children": [
        4
      ],
      "matrix": [
        1,
        0,
        0,
        0,
        0,
        1,
        0,
        0,
        0,
        0,
        1,
        0,
        3.4132399999999996,
        2.9924899999999997,
        3.9759699999999998,
        1
      ],
      "name": "coussin"
    },
    {
      "children": [
        5
      ],
      "name": "Geode"
    },
    {
      "mesh": 0,
      "name": "coussin"
    },
    {
      "children": [
        7
      ],
      "matrix": [
        0.50107999999999997,
        0,
        -0.86540000000000006,
        0,
        -0,
        1,
        0,
        0,
        0.86540000000000006,
        0,
        0.50107999999999997,
        0,
        -3.08134,
        2.9999499999999997,
        7.4633700000000003,
        1
      ],
      "name": "coussin.001"
    },
    {
      "children": [
        8
      ],
      "name": "Geode"
    },
    {
      "mesh": 1,
      "name": "coussin.001"
    },
    {
      "children": [
        10
      ],
      "matrix": [
        1,
        0,
        0,
        0,
        0,
        1,
        0,
        0,
        0,
        0,
        1,
        0,
        -5.6843699999999995,
        -0,
        9.4387899999999991,
        1
      ],
      "name": "strcuture"
    },
    {
      "children": [
        11,
        12
      ],
      "name": "Geode"
    },
    {
      "mesh": 2,
      "name": "strcuture"
    },
    {
      "mesh": 3,
      "name": "strcuture"
    },
    {
      "children": [
        14
      ],
      "matrix": [
        1,
        0,
        0,
        0,
        0,
        1,
        0,
        0,
        0,
        0,
        1,
        0,
        -5.6843699999999995,
        -0,
        9.4387899999999991,
        1
      ],
      "name": "laniere"
    },
    {
      "children": [
        15
      ],
      "name": "Geode"
    },
    {
      "mesh": 4,
      "name": "laniere"
    }
  ],
  "samplers": [
    {
      "magFilter": 9729,
      "minFilter": 9987,
      "wrapS": 10497,
      "wrapT": 10497
    }
  ],
  "scene": 0,
  "scenes": [
    {
      "name": "OSG_Scene",
      "nodes": [
        0
      ]
    }
  ],
  "textures": [
    {
      "sampler": 0,
      "source": 0
    },
    {
      "sampler": 0,
      "source": 1
    },
    {
      "sampler": 0,
      "source": 2
    },
    {
      "sampler": 0,
      "source": 3
    },
    {
      "sampler": 0,
      "source": 4
    }
  ]
}

